<svg width="22" height="22" viewBox="0 0 22 22" fill="none" xmlns="http://www.w3.org/2000/svg">
  <path
    d="M11 22C4.93412 22 0 17.0653 0 11C0 4.93465 4.93412 0 11 0C17.0659 0 22 4.93465 22 11C22 17.0653 17.0659 22 11 22ZM11 1.59628C5.81473 1.59628 1.59628 5.81473 1.59628 11C1.59628 16.1853 5.81473 20.4037 11 20.4037C16.1853 20.4037 20.4037 16.1853 20.4037 11C20.4037 5.81473 16.1853 1.59628 11 1.59628Z"
    fill="#d12121" />
  <path
    d="M15.5717 16.4949C15.4669 16.495 15.3631 16.4744 15.2662 16.4343C15.1694 16.3942 15.0813 16.3354 15.0072 16.2613L5.86366 7.11729C5.78743 7.04367 5.72662 6.9556 5.68479 6.85822C5.64296 6.76084 5.62095 6.65611 5.62003 6.55013C5.6191 6.44416 5.6393 6.33906 5.67943 6.24097C5.71956 6.14288 5.77883 6.05377 5.85377 5.97883C5.9287 5.90389 6.01782 5.84462 6.11591 5.80449C6.214 5.76436 6.3191 5.74417 6.42507 5.74509C6.53105 5.74601 6.63578 5.76803 6.73316 5.80985C6.83053 5.85168 6.91861 5.91249 6.99223 5.98872L16.1363 15.1328C16.2478 15.2444 16.3237 15.3866 16.3544 15.5414C16.3852 15.6962 16.3693 15.8566 16.3089 16.0024C16.2485 16.1482 16.1462 16.2728 16.015 16.3604C15.8838 16.4481 15.7295 16.4949 15.5717 16.4949Z"
    fill="#d12121" />
  <path
    d="M6.79744 16.7401C6.63969 16.74 6.48551 16.6931 6.35438 16.6054C6.22326 16.5177 6.12107 16.3931 6.06072 16.2473C6.00036 16.1016 5.98456 15.9412 6.0153 15.7865C6.04604 15.6317 6.12194 15.4896 6.23342 15.378L15.3769 6.23392C15.5266 6.08419 15.7296 6.00005 15.9413 6C16.153 5.99995 16.356 6.084 16.5058 6.23366C16.6555 6.38332 16.7397 6.58632 16.7397 6.79802C16.7398 7.00972 16.6557 7.21277 16.506 7.3625L7.36199 16.5065C7.28784 16.5807 7.19982 16.6394 7.10295 16.6795C7.00609 16.7196 6.90227 16.7402 6.79744 16.7401Z"
    fill="#d12121" />
</svg>
  