<svg width="22" height="22" viewBox="0 0 26 26" fill="none" xmlns="http://www.w3.org/2000/svg">
  <path fill-rule="evenodd" clip-rule="evenodd"
    d="M0.243896 11.3269C0.243896 5.34738 5.09128 0.5 11.0708 0.5C17.0504 0.5 21.8977 5.34738 21.8977 11.3269C21.8977 13.8799 21.0138 16.2271 19.5355 18.0782L25.389 23.9318C25.8622 24.4049 25.8622 25.172 25.389 25.6451C24.9159 26.1183 24.1488 26.1183 23.6757 25.6451L17.8221 19.7916C15.971 21.2699 13.6238 22.1538 11.0708 22.1538C5.09128 22.1538 0.243896 17.3065 0.243896 11.3269ZM2.16697 11.3269C2.16697 6.40946 6.15336 2.42308 11.0708 2.42308C15.9883 2.42308 19.9747 6.40946 19.9747 11.3269C19.9747 16.2444 15.9883 20.2308 11.0708 20.2308C6.15336 20.2308 2.16697 16.2444 2.16697 11.3269Z"
    fill="currentColor" />
</svg>