<svg width="24" height="24" viewBox="0 0 19 25" fill="none" xmlns="http://www.w3.org/2000/svg">
  <path
    d="M9.42646 19.7406C9.27323 19.7406 9.12256 19.7013 8.98884 19.6265C6.85231 18.4312 5.07284 16.6882 3.8335 14.5769C2.59416 12.4656 1.93972 10.0622 1.9375 7.61399C1.9375 7.51449 1.93869 7.41498 1.94108 7.31548C1.98884 5.07667 2.82526 3.18951 4.36019 1.85876C5.71243 0.685033 7.51183 0.0390625 9.42646 0.0390625C11.3411 0.0390625 13.1399 0.685033 14.4939 1.85817C16.0288 3.18891 16.8653 5.07608 16.913 7.31488C16.9154 7.41439 16.9166 7.51389 16.9166 7.61339C16.9143 10.0619 16.2597 12.4655 15.02 14.5769C13.7803 16.6884 12.0004 18.4314 9.86347 19.6265C9.72993 19.7012 9.57948 19.7405 9.42646 19.7406ZM9.42646 1.83011C7.94287 1.83011 6.56078 2.32026 5.53332 3.211C4.39123 4.20145 3.76795 5.63369 3.73153 7.35309C3.73153 7.43966 3.73153 7.52682 3.73153 7.61399C3.73342 9.65783 4.25794 11.6672 5.25522 13.4512C6.2525 15.2353 7.68943 16.7346 9.42944 17.8068C11.1694 16.7346 12.6062 15.2352 13.6034 13.4512C14.6006 11.6672 15.125 9.65778 15.1268 7.61399C15.1268 7.52682 15.1268 7.43966 15.1238 7.35309C15.0873 5.63369 14.4641 4.20145 13.322 3.211C12.2921 2.32026 10.9118 1.83011 9.42646 1.83011Z"
    fill="currentColor" />
  <path
    d="M9.44299 11.9436C8.59129 11.9436 7.75872 11.691 7.05055 11.2179C6.34239 10.7447 5.79045 10.0721 5.46452 9.28526C5.13858 8.4984 5.05331 7.63255 5.21946 6.79721C5.38562 5.96188 5.79576 5.19458 6.398 4.59233C7.00024 3.99009 7.76754 3.57996 8.60288 3.4138C9.43821 3.24764 10.3041 3.33292 11.0909 3.65885C11.8778 3.98478 12.5503 4.53673 13.0235 5.24489C13.4967 5.95305 13.7493 6.78563 13.7493 7.63733C13.748 8.77903 13.2939 9.87361 12.4866 10.6809C11.6793 11.4882 10.5847 11.9423 9.44299 11.9436ZM9.44299 5.1227C8.9455 5.1227 8.45918 5.27023 8.04554 5.54663C7.6319 5.82303 7.30952 6.21589 7.11917 6.67553C6.92881 7.13516 6.87904 7.64092 6.97614 8.12884C7.07324 8.61676 7.31285 9.06493 7.66467 9.41667C8.01649 9.7684 8.46471 10.0079 8.95266 10.1049C9.4406 10.2019 9.94635 10.152 10.4059 9.96152C10.8655 9.77105 11.2583 9.44858 11.5346 9.03487C11.8109 8.62117 11.9583 8.13482 11.9582 7.63733C11.9574 6.97054 11.6922 6.33131 11.2206 5.85988C10.7491 5.38845 10.1098 5.12333 9.44299 5.1227Z"
    fill="currentColor" />
  <path
    d="M9.42627 24.0379C7.01015 24.0379 4.72478 23.5567 2.99104 22.6833C1.0609 21.7095 0 20.3478 0 18.8439C0 16.8492 1.86567 15.1269 4.99104 14.2373C5.21784 14.1779 5.45888 14.2098 5.6624 14.3262C5.86593 14.4426 6.0157 14.6341 6.07956 14.8597C6.14342 15.0853 6.11627 15.3269 6.00394 15.5327C5.89162 15.7385 5.70308 15.892 5.47881 15.9603C3.23702 16.5985 1.78866 17.7304 1.78866 18.8439C1.78866 20.4558 4.92418 22.2469 9.42388 22.2469C13.9236 22.2469 17.0609 20.4558 17.0609 18.8439C17.0609 17.7304 15.6125 16.5985 13.3707 15.9603C13.2576 15.9281 13.1519 15.874 13.0597 15.8009C12.9675 15.7279 12.8906 15.6374 12.8334 15.5347C12.7178 15.3272 12.6893 15.0822 12.7543 14.8537C12.8193 14.6252 12.9724 14.4319 13.1799 14.3163C13.3875 14.2007 13.6324 14.1723 13.8609 14.2373C16.9863 15.1269 18.8519 16.8492 18.8519 18.8439C18.8519 20.3478 17.7899 21.7095 15.8609 22.6833C14.1272 23.5567 11.8418 24.0379 9.42627 24.0379Z"
    fill="currentColor" />
</svg>