<svg width="22" height="22" viewBox="0 0 20 25" fill="none" xmlns="http://www.w3.org/2000/svg">
  <path fill-rule="evenodd" clip-rule="evenodd"
    d="M13.9747 5.76923C13.9747 7.8934 12.2527 9.61539 10.1286 9.61539C8.0044 9.61539 6.28241 7.8934 6.28241 5.76923C6.28241 3.64506 8.0044 1.92308 10.1286 1.92308C12.2527 1.92308 13.9747 3.64506 13.9747 5.76923ZM15.8978 5.76923C15.8978 8.95549 13.3148 11.5385 10.1286 11.5385C6.94231 11.5385 4.35934 8.95549 4.35934 5.76923C4.35934 2.58297 6.94231 0 10.1286 0C13.3148 0 15.8978 2.58297 15.8978 5.76923ZM4.90879 13.4615C2.48116 13.4615 0.513184 15.4295 0.513184 17.8571V24.0385C0.513184 24.5695 0.943679 25 1.47472 25C2.00577 25 2.43626 24.5695 2.43626 24.0385V17.8571C2.43626 16.4916 3.54325 15.3846 4.90879 15.3846H15.3483C16.7139 15.3846 17.8209 16.4916 17.8209 17.8571V24.0385C17.8209 24.5695 18.2514 25 18.7824 25C19.3135 25 19.744 24.5695 19.744 24.0385V17.8571C19.744 15.4295 17.776 13.4615 15.3483 13.4615H4.90879Z"
    fill="#9D2F51" />
</svg>