<svg width="24" height="24" viewBox="0 0 24 24" fill="none" xmlns="http://www.w3.org/2000/svg">
  <path fill-rule="evenodd" clip-rule="evenodd"
    d="M4 2H2L2 4H4V2ZM2 0C0.895431 0 0 0.89543 0 2V4C0 5.10457 0.89543 6 2 6H4C5.10457 6 6 5.10457 6 4V2C6 0.895431 5.10457 0 4 0H2ZM13 2H11V4H13V2ZM11 0C9.89543 0 9 0.89543 9 2V4C9 5.10457 9.89543 6 11 6H13C14.1046 6 15 5.10457 15 4V2C15 0.895431 14.1046 0 13 0H11ZM20 2H22V4H20V2ZM18 2C18 0.89543 18.8954 0 20 0H22C23.1046 0 24 0.895431 24 2V4C24 5.10457 23.1046 6 22 6H20C18.8954 6 18 5.10457 18 4V2ZM4 11H2L2 13H4V11ZM2 9C0.895431 9 0 9.89543 0 11V13C0 14.1046 0.89543 15 2 15H4C5.10457 15 6 14.1046 6 13V11C6 9.89543 5.10457 9 4 9H2ZM11 11H13V13H11V11ZM9 11C9 9.89543 9.89543 9 11 9H13C14.1046 9 15 9.89543 15 11V13C15 14.1046 14.1046 15 13 15H11C9.89543 15 9 14.1046 9 13V11ZM22 11H20V13H22V11ZM20 9C18.8954 9 18 9.89543 18 11V13C18 14.1046 18.8954 15 20 15H22C23.1046 15 24 14.1046 24 13V11C24 9.89543 23.1046 9 22 9H20ZM2 20H4V22H2L2 20ZM0 20C0 18.8954 0.895431 18 2 18H4C5.10457 18 6 18.8954 6 20V22C6 23.1046 5.10457 24 4 24H2C0.89543 24 0 23.1046 0 22V20ZM13 20H11V22H13V20ZM11 18C9.89543 18 9 18.8954 9 20V22C9 23.1046 9.89543 24 11 24H13C14.1046 24 15 23.1046 15 22V20C15 18.8954 14.1046 18 13 18H11ZM20 20H22V22H20V20ZM18 20C18 18.8954 18.8954 18 20 18H22C23.1046 18 24 18.8954 24 20V22C24 23.1046 23.1046 24 22 24H20C18.8954 24 18 23.1046 18 22V20Z"
    fill="currentColor" />
</svg>