<svg width="26" height="16" viewBox="0 0 26 16" fill="none" xmlns="http://www.w3.org/2000/svg">
  <path fill-rule="evenodd" clip-rule="evenodd" d="M0.335938 1C0.335938 0.447715 0.783653 0 1.33594 0H19.3359C19.8882 0 20.3359 0.447715 20.3359 1C20.3359 1.55228 19.8882 2 19.3359 2H1.33594C0.783653 2 0.335938 1.55228 0.335938 1ZM0.335938 8C0.335938 7.44772 0.783653 7 1.33594 7H24.3359C24.8882 7 25.3359 7.44772 25.3359 8C25.3359 8.55229 24.8882 9 24.3359 9H1.33594C0.783653 9 0.335938 8.55229 0.335938 8ZM1.33594 14C0.783653 14 0.335938 14.4477 0.335938 15C0.335938 15.5523 0.783653 16 1.33594 16H15.5859C16.1382 16 16.5859 15.5523 16.5859 15C16.5859 14.4477 16.1382 14 15.5859 14H1.33594Z" fill="currentColor"/>
</svg>