<svg width="18" height="18" viewBox="0 0 19 19" fill="none" xmlns="http://www.w3.org/2000/svg">
  <path fill-rule="evenodd" clip-rule="evenodd"
    d="M1.7072 0.292893C1.31668 -0.0976311 0.683511 -0.0976311 0.292986 0.292893C-0.097538 0.683417 -0.0975376 1.31658 0.292987 1.70711L7.71759 9.13171L0.292893 16.5564C-0.0976311 16.9469 -0.0976311 17.5801 0.292893 17.9706C0.683417 18.3612 1.31658 18.3612 1.70711 17.9706L9.13181 10.5459L16.5564 17.9706C16.947 18.3611 17.5801 18.3611 17.9707 17.9706C18.3612 17.58 18.3612 16.9469 17.9707 16.5563L10.546 9.13171L17.9706 1.70717C18.3611 1.31665 18.3611 0.683483 17.9706 0.292958C17.58 -0.0975659 16.9469 -0.0975655 16.5563 0.292959L9.13181 7.7175L1.7072 0.292893Z"
    fill="currentColor" />
</svg>
  