<svg width="17" height="18" viewBox="0 0 17 18" fill="none" xmlns="http://www.w3.org/2000/svg">
  <path fill-rule="evenodd" clip-rule="evenodd"
    d="M0.85791 9.00076C0.85791 8.44847 1.30563 8.00075 1.85791 8.00075L7.92898 8.00076V1.92969C7.92898 1.3774 8.37669 0.929687 8.92898 0.929688C9.48126 0.929687 9.92898 1.3774 9.92898 1.92969V8.00076H16C16.5523 8.00075 17 8.44847 17 9.00076C17 9.55304 16.5523 10.0008 16 10.0008H9.92898V16.0718C9.92898 16.6241 9.48126 17.0718 8.92898 17.0718C8.37669 17.0718 7.92898 16.6241 7.92898 16.0718V10.0008L1.85791 10.0008C1.30563 10.0008 0.85791 9.55304 0.85791 9.00076Z"
    fill="currentColor" />
</svg>
  