<svg width="24" height="24" viewBox="0 0 26 27" fill="none" xmlns="http://www.w3.org/2000/svg">
  <path fill-rule="evenodd" clip-rule="evenodd"
    d="M10.2449 0.0392866L10.266 0.0390625H15.0627L15.08 0.0392121C15.4488 0.0455927 15.8044 0.177408 16.0883 0.412944C16.3721 0.64848 16.5673 0.973683 16.6416 1.33498C16.6458 1.35563 16.6494 1.37641 16.6524 1.39729L17.0214 4.02355C17.4561 4.23602 17.8743 4.48068 18.2725 4.75548L20.738 3.76299L20.7556 3.75612C21.109 3.62152 21.4987 3.61597 21.8558 3.74046C22.213 3.86494 22.5147 4.11147 22.7079 4.43662L22.7141 4.44703L25.111 8.59425C25.1113 8.59472 25.1116 8.59519 25.1118 8.59567C25.3024 8.92404 25.3704 9.30933 25.3038 9.68314C25.2371 10.0575 25.0397 10.396 24.7468 10.6384C24.7402 10.6439 24.7335 10.6493 24.7267 10.6546L22.6275 12.3028C22.6456 12.5392 22.6582 12.7859 22.6582 13.0391V13.0449C22.6568 13.2841 22.6465 13.5231 22.6273 13.7614L24.7247 15.4064C24.7318 15.412 24.7388 15.4176 24.7457 15.4234C25.0382 15.6658 25.2353 16.0042 25.3019 16.3782C25.3685 16.7516 25.3007 17.1365 25.1107 17.4647M25.1097 17.4664L22.7068 21.624C22.5138 21.9494 22.2121 22.1962 21.8549 22.3209C21.4977 22.4457 21.108 22.4404 20.7543 22.3059L20.7362 22.2988L18.2698 21.3057C17.8714 21.5773 17.4542 21.8205 17.0215 22.0332L16.6518 24.664C16.6503 24.675 16.6485 24.686 16.6466 24.697C16.5819 25.0671 16.3907 25.4032 16.1057 25.648C15.8207 25.8927 15.4595 26.0309 15.0838 26.0388L15.0627 26.0391H10.266L10.2487 26.0389C9.87993 26.0325 9.5243 25.9007 9.24044 25.6652C8.95658 25.4296 8.76141 25.1044 8.6871 24.7431C8.68285 24.7225 8.67926 24.7017 8.67632 24.6808L8.30726 22.0546C7.8726 21.8421 7.45443 21.5974 7.05624 21.3226L4.59067 22.3151L4.57312 22.322C4.21966 22.4566 3.83003 22.4622 3.47288 22.3377C3.11573 22.2132 2.81397 21.9666 2.62076 21.6415L2.61457 21.6311L0.217681 17.4839C0.21742 17.4834 0.217159 17.483 0.216899 17.4825C0.0263286 17.1541 -0.0417095 16.7688 0.0249 16.395C0.0916002 16.0207 0.288986 15.6821 0.581916 15.4397C0.588525 15.4342 0.595204 15.4288 0.601951 15.4235L2.69833 13.7776C2.67853 13.5368 2.66603 13.2898 2.66603 13.0374C2.66603 12.7912 2.67745 12.5511 2.6973 12.3157L0.598947 10.6673C0.589495 10.6599 0.580178 10.6523 0.570999 10.6445C0.282991 10.401 0.0898733 10.0639 0.0254889 9.69224C-0.0388311 9.32097 0.0294242 8.93892 0.218295 8.61291C0.218484 8.61258 0.218672 8.61226 0.218861 8.61193L2.62194 4.45417C2.81492 4.12876 3.11664 3.88195 3.47381 3.75718C3.83098 3.63242 4.22073 3.63774 4.57435 3.77221L4.59246 3.77929L7.05891 4.77247C7.45732 4.5008 7.87446 4.25766 8.30718 4.04488L8.67688 1.41411C8.67843 1.40308 8.68017 1.39208 8.68209 1.38111C8.74677 1.01102 8.93797 0.67488 9.22301 0.430137C9.50805 0.185395 9.86925 0.0472403 10.2449 0.0392866M2.74112 12.3501C2.74089 12.3499 2.74134 12.3503 2.74112 12.3501V12.3501ZM17.0294 21.9772C17.0293 21.9777 17.0293 21.9781 17.0292 21.9786L17.0294 21.9772ZM10.6087 2.03906L10.2802 4.37648C10.2802 4.37658 10.2802 4.37637 10.2802 4.37648C10.2374 4.68433 10.1193 4.97721 9.93662 5.22868C9.75386 5.48023 9.51198 5.68291 9.23233 5.81883L9.23139 5.81929C8.85773 6.00042 8.49833 6.20959 8.15626 6.44501C7.89857 6.6239 7.60064 6.73633 7.28898 6.77228C6.97618 6.80837 6.65931 6.76629 6.36677 6.64981L6.36316 6.64837L4.1734 5.76661L2.1202 9.31903L3.97524 10.7763C4.2229 10.9705 4.41836 11.2232 4.544 11.5118C4.66965 11.8003 4.72154 12.1156 4.69499 12.4292L4.69449 12.4352C4.67612 12.6377 4.66603 12.8373 4.66603 13.0374C4.66603 13.2353 4.67643 13.4381 4.69457 13.6491C4.72337 13.9625 4.67386 14.2782 4.55046 14.5678C4.42642 14.8589 4.23166 15.1144 3.98384 15.3111L3.97966 15.3144L2.1184 16.7757L4.17148 20.3279L6.36102 19.4465C6.65305 19.3291 6.96989 19.286 7.28266 19.3214C7.59543 19.3568 7.89448 19.4695 8.15287 19.6492L8.15462 19.6505C8.49192 19.8862 8.84755 20.0946 9.2181 20.2736C9.49956 20.4082 9.74358 20.61 9.92861 20.8612C10.1144 21.1134 10.2349 21.4076 10.2796 21.7177L10.28 21.721L10.6058 24.0391H14.72L15.0485 21.7016C15.0485 21.7013 15.0486 21.7009 15.0486 21.7005C15.0486 21.7005 15.0486 21.7004 15.0486 21.7005C15.0916 21.393 15.2096 21.1006 15.3921 20.8494C15.5748 20.5979 15.8167 20.3952 16.0964 20.2593L16.0973 20.2588C16.4709 20.0777 16.8303 19.8686 17.1723 19.6332C17.43 19.4543 17.728 19.3418 18.0397 19.3058C18.3525 19.2698 18.6694 19.3118 18.9619 19.4283L18.9655 19.4298L21.1553 20.3115L23.2085 16.759L20.9552 14.9917C20.6743 14.7713 20.5321 14.4178 20.5823 14.0643C20.6307 13.7237 20.656 13.3802 20.6582 13.0361C20.6581 12.8396 20.6478 12.6372 20.631 12.4254C20.6031 12.1119 20.6536 11.7964 20.7779 11.5072C20.903 11.216 21.0989 10.9608 21.3478 10.7648L23.2103 9.30241L21.1572 5.75021L18.9677 6.63158C18.6757 6.74907 18.3588 6.79212 18.046 6.75673C17.7333 6.72133 17.4342 6.60867 17.1758 6.42889L17.1741 6.42767C16.8369 6.19197 16.4813 5.98365 16.1109 5.80471C15.8293 5.6701 15.5852 5.46823 15.4001 5.21691C15.2143 4.9647 15.0938 4.6705 15.0491 4.36047L15.0487 4.3571L14.7229 2.03906H10.6087ZM10.4033 9.04597C11.2266 8.57982 12.1738 8.37952 13.1153 8.4725L13.117 8.47267C14.172 8.57863 15.1579 9.04608 15.9076 9.79582C16.6573 10.5455 17.1248 11.5314 17.2307 12.5864L17.2309 12.5881C17.3239 13.5296 17.1236 14.4768 16.6574 15.3001C16.1913 16.1233 15.4821 16.7824 14.6269 17.187C13.7717 17.5916 12.8123 17.722 11.8801 17.5604C10.948 17.3987 10.0886 16.9528 9.41958 16.2838C8.7506 15.6148 8.30474 14.7554 8.14306 13.8233C7.98138 12.8911 8.11178 11.9318 8.51639 11.0766C8.92101 10.2214 9.58007 9.51213 10.4033 9.04597ZM12.9181 10.4628C12.3872 10.4105 11.853 10.5235 11.3888 10.7863C10.9243 11.0493 10.5525 11.4494 10.3243 11.9319C10.096 12.4144 10.0224 12.9556 10.1136 13.4815C10.2049 14.0074 10.4564 14.4922 10.8338 14.8696C11.2112 15.247 11.696 15.4986 12.2219 15.5898C12.7478 15.681 13.289 15.6074 13.7715 15.3792C14.254 15.1509 14.6541 14.7791 14.9171 14.3146C15.1799 13.8504 15.293 13.3163 15.2407 12.7853C15.1806 12.1898 14.9166 11.6333 14.4934 11.21C14.0701 10.7868 13.5136 10.5228 12.9181 10.4628Z"
    fill="currentColor" />
</svg>