<svg width="24" height="24" viewBox="0 0 23 21" fill="none" xmlns="http://www.w3.org/2000/svg">
  <path fill-rule="evenodd" clip-rule="evenodd"
    d="M1.43541 1.53502V4.0709H1.57895H2.29665H20.0478H20.7655H20.9091V1.53502H1.43541ZM0.956937 5.50631H1.57895V18.9034C1.57895 19.2101 1.68429 19.5214 1.92074 19.7578C2.15718 19.9943 2.46848 20.0996 2.77512 20.0996H19.5215C20.2653 20.0996 20.662 19.4921 20.7516 19.0442L20.7655 18.9745V18.9034V5.50631H21.3397C21.896 5.50631 22.1995 5.10066 22.3076 4.77633L22.3445 4.66584V4.54937V1.29578C22.3445 0.989145 22.2391 0.677843 22.0027 0.441399C21.7662 0.204954 21.4549 0.0996094 21.1483 0.0996094H1.19617C0.889534 0.0996094 0.578233 0.204954 0.341789 0.441399C0.105345 0.677843 0 0.989145 0 1.29578V4.54937C0 4.78424 0.0814215 5.03573 0.276 5.23031C0.470578 5.42489 0.722071 5.50631 0.956937 5.50631ZM3.01435 18.6642V5.50631H19.3301V18.6642H3.01435ZM7.22487 9.42975C7.22487 9.06058 7.52556 8.7599 7.89473 8.7599H14.6411C15.0103 8.7599 15.311 9.06058 15.311 9.42975C15.311 9.76709 14.9945 10.0996 14.6411 10.0996H7.89473C7.52556 10.0996 7.22487 9.79893 7.22487 9.42975ZM7.89473 7.32449C6.7328 7.32449 5.78947 8.26783 5.78947 9.42975C5.78947 10.5917 6.7328 11.535 7.89473 11.535H14.6411C15.8189 11.535 16.7464 10.5278 16.7464 9.42975C16.7464 8.26783 15.8031 7.32449 14.6411 7.32449H7.89473Z"
    fill="currentColor" />
</svg>