<svg width="24" height="24" viewBox="0 0 24 24" fill="none" xmlns="http://www.w3.org/2000/svg">
  <path fill-rule="evenodd" clip-rule="evenodd"
    d="M1.63916 3.8045C1.57772 3.8045 1.5182 3.82946 1.47404 3.87362C1.42988 3.91778 1.40492 3.9773 1.40492 4.03874V11.7658H15.7329C15.7732 11.7658 15.8136 11.7706 15.852 11.7811V9.6845C15.852 9.67682 15.852 9.66818 15.852 9.65954C15.852 9.6509 15.852 9.64226 15.852 9.63362V5.00162C15.852 4.99298 15.852 4.98434 15.852 4.9757C15.852 4.96706 15.852 4.95842 15.852 4.94978V3.8045H1.63916ZM17.2574 10.3613V14.6467C17.4849 14.6007 17.7201 14.5767 17.9611 14.5767C19.6603 14.5767 21.0782 15.7834 21.4036 17.3866H22.1505C22.212 17.3866 22.2715 17.3616 22.3156 17.3175C22.3598 17.2733 22.3848 17.2138 22.3848 17.1523V10.3613H17.2574ZM21.4036 18.7911C21.0782 20.3943 19.6603 21.601 17.9611 21.601C16.2619 21.601 14.844 20.3933 14.5195 18.7901H10.2321C9.90764 20.3933 8.48972 21.601 6.79052 21.601C5.09036 21.601 3.6734 20.3933 3.34796 18.7901H1.63916C1.20524 18.7901 0.787643 18.6173 0.480443 18.3101C0.173243 18.0029 0.000442505 17.5863 0.000442505 17.1514V4.03874C0.000442505 3.60482 0.173243 3.18722 0.480443 2.88002C0.787643 2.57282 1.20524 2.40002 1.63916 2.40002H16.5547C16.9425 2.40002 17.2574 2.7149 17.2574 3.10274V4.27298H20.58C20.9073 4.27202 21.227 4.36898 21.4987 4.55234C21.7704 4.7357 21.9796 4.99682 22.1006 5.30114L22.1016 5.30306L23.7393 9.39746C23.7758 9.48866 23.7912 9.58274 23.7892 9.6749V17.1523C23.7892 17.5872 23.6164 18.0039 23.3092 18.3111C23.002 18.6183 22.5854 18.7911 22.1505 18.7911H21.4036ZM20.0683 18.0384C20.0673 18.0547 20.0664 18.072 20.0664 18.0883C20.0664 18.1056 20.0673 18.1219 20.0683 18.1392C20.0414 19.2797 19.1083 20.1955 17.9611 20.1955C16.7976 20.1955 15.8539 19.2528 15.8539 18.0883C15.8539 16.9248 16.7976 15.9811 17.9611 15.9811C19.1083 15.9811 20.0414 16.8979 20.0683 18.0384ZM22.0497 8.95682H17.2574V5.67842H20.5819H20.5857C20.6308 5.67746 20.675 5.6909 20.7124 5.71586C20.7489 5.74082 20.7777 5.7773 20.794 5.81858L20.796 5.82146L22.0497 8.95682ZM1.63916 17.3856H3.34796C3.67436 15.7824 5.09132 14.5767 6.79052 14.5767C8.48876 14.5767 9.90572 15.7824 10.2321 17.3847H14.5195C14.6932 16.5293 15.179 15.7863 15.852 15.2794V13.1549C15.8136 13.1655 15.7732 13.1703 15.7329 13.1703H1.40492V17.1514C1.40492 17.2138 1.42988 17.2733 1.47404 17.3165C1.5182 17.3607 1.57772 17.3856 1.63916 17.3856ZM4.68332 18.0883C4.68332 18.096 4.68332 18.1037 4.68332 18.1123C4.6958 19.2653 5.63468 20.1955 6.79052 20.1955C7.95404 20.1955 8.89772 19.2528 8.89772 18.0883C8.89772 16.9248 7.95404 15.9811 6.79052 15.9811C5.63468 15.9811 4.6958 16.9114 4.68332 18.0634C4.68332 18.072 4.68332 18.0797 4.68332 18.0883Z"
    fill="#9D2F51" />
</svg>