<svg width="24" height="24" viewBox="0 0 24 24" fill="none" xmlns="http://www.w3.org/2000/svg">
  <path fill-rule="evenodd" clip-rule="evenodd"
    d="M10.9102 7.63815C10.9102 8.24074 11.3981 8.72931 12.0011 8.72931C12.6042 8.72931 13.0921 8.24074 13.0921 7.63815V1.09116C13.0921 0.488573 12.6042 0 12.0011 0C11.3981 0 10.9102 0.488573 10.9102 1.09116V7.63815ZM0 11.9957C0 18.6141 5.3835 23.9985 12.0007 23.9985C18.618 23.9985 24.0015 18.6141 24.0015 11.9957C24.0015 7.22296 21.175 2.90359 16.8015 0.991924C16.2485 0.751634 15.6061 1.00418 15.3653 1.55509C15.1235 2.10706 15.376 2.75068 15.9278 2.99204C19.5065 4.55632 21.8195 8.09035 21.8195 11.9957C21.8195 17.4105 17.4151 21.8162 12.0007 21.8162C6.58635 21.8162 2.18195 17.4105 2.18195 11.9957C2.18195 8.12391 4.46725 4.60161 8.00334 3.02241C8.55416 2.77679 8.80133 2.13157 8.55522 1.5812C8.31018 1.03082 7.66454 0.782536 7.11479 1.02975C2.79243 2.95954 0 7.26398 0 11.9957Z"
    fill="currentColor" />
</svg>