<svg width="24" height="24" viewBox="0 0 24 24" fill="none" xmlns="http://www.w3.org/2000/svg">
  <path fill-rule="evenodd" clip-rule="evenodd"
    d="M12.0002 10.9069C12.6024 10.9069 13.0911 11.3956 13.0911 11.9978V16.3614C13.0911 16.9636 12.6024 17.4524 12.0002 17.4524C11.398 17.4524 10.9093 16.9636 10.9093 16.3614V11.9978C10.9093 11.3956 11.398 10.9069 12.0002 10.9069ZM12.0002 6.5498C11.398 6.5498 10.9093 7.03853 10.9093 7.64071C10.9093 8.24399 11.398 8.73162 12.0002 8.73162H12.0111C12.6133 8.73162 13.102 8.24399 13.102 7.64071C13.102 7.03853 12.6133 6.5498 12.0111 6.5498H12.0002Z"
    fill="#9D2F51" />
  <path fill-rule="evenodd" clip-rule="evenodd"
    d="M11.9979 1.00143C18.0694 1.00143 22.998 5.93004 22.998 12.0016C22.998 18.0732 18.0694 23.0018 11.9979 23.0018C5.92745 23.0018 0.998901 18.0732 0.998901 12.0016C0.998901 5.93004 5.92745 1.00143 11.9979 1.00143ZM11.9979 2.50106C17.2417 2.50106 21.4984 6.75892 21.4984 12.0016C21.4984 17.2443 17.2417 21.5022 11.9979 21.5022C6.75524 21.5022 2.49852 17.2443 2.49852 12.0016C2.49852 6.75892 6.75524 2.50106 11.9979 2.50106Z"
    fill="#9D2F51" />
</svg>