<svg width="24" height="24" viewBox="0 0 26 25" fill="none" xmlns="http://www.w3.org/2000/svg">
  <path fill-rule="evenodd" clip-rule="evenodd"
    d="M7.87868 0.917742C8.44129 0.355133 9.20435 0.0390625 10 0.0390625H16C16.7957 0.0390625 17.5587 0.355133 18.1213 0.917742C18.6839 1.48035 19 2.24341 19 3.03906V4.03906H24C25.1046 4.03906 26 4.93449 26 6.03906V16.0391V22.0391C26 23.1436 25.1046 24.0391 24 24.0391H2C0.895431 24.0391 0 23.1436 0 22.0391V16.0391V6.03906C0 4.93449 0.895431 4.03906 2 4.03906H7V3.03906C7 2.24341 7.31607 1.48035 7.87868 0.917742ZM2 17.0391V22.0391H24V17.0391H2ZM24 15.0391H2V6.03906H8H18H24V15.0391ZM17 3.03906V4.03906H9V3.03906C9 2.77385 9.10536 2.51949 9.29289 2.33196C9.48043 2.14442 9.73478 2.03906 10 2.03906H16C16.2652 2.03906 16.5196 2.14442 16.7071 2.33196C16.8946 2.51949 17 2.77385 17 3.03906Z"
    fill="currentColor" />
</svg>