<svg width="22" height="22" viewBox="0 0 18 25" fill="none" xmlns="http://www.w3.org/2000/svg">
  <path fill-rule="evenodd" clip-rule="evenodd"
    d="M7.15604 2H10.8703C10.9492 2 11.0132 2.06396 11.0132 2.14286V4H7.01318V2.14286C7.01318 2.06396 7.07714 2 7.15604 2ZM5.01318 4V2.14286C5.01318 0.95939 5.97257 0 7.15604 0H10.8703C12.0538 0 13.0132 0.95939 13.0132 2.14286V4H14.151C15.7524 4 17.0714 5.25774 17.1476 6.8573L17.8619 21.8573C17.9433 23.5682 16.5782 25 14.8653 25H3.15779C1.44491 25 0.0797077 23.5682 0.161181 21.8573L0.875467 6.8573C0.951637 5.25774 2.27069 4 3.87207 4H5.01318ZM12.2989 6H5.01318H3.87207C3.33828 6 2.89859 6.41925 2.8732 6.95243L2.15892 21.9524C2.13176 22.5227 2.58683 23 3.15779 23H14.8653C15.4362 23 15.8913 22.5227 15.8641 21.9524L15.1499 6.95244C15.1245 6.41925 14.6848 6 14.151 6H12.2989Z"
    fill="currentColor" />
</svg>