<svg width="21" height="20" viewBox="0 0 21 20" fill="none" xmlns="http://www.w3.org/2000/svg">
  <path fill-rule="evenodd" clip-rule="evenodd"
    d="M2.389 10C2.389 5.31048 6.19061 1.50888 10.8801 1.50888C15.5696 1.50888 19.3713 5.31048 19.3713 10C19.3713 14.6895 15.5696 18.4911 10.8801 18.4911C6.19061 18.4911 2.389 14.6895 2.389 10ZM10.8801 0C5.35728 0 0.880127 4.47715 0.880127 10C0.880127 15.5228 5.35728 20 10.8801 20C16.403 20 20.8801 15.5228 20.8801 10C20.8801 4.47715 16.403 0 10.8801 0ZM11.6343 4.45223C11.6343 4.03556 11.2965 3.69779 10.8798 3.69779C10.4632 3.69779 10.1254 4.03556 10.1254 4.45223V9.99957C10.1254 10.2853 10.2869 10.5466 10.5424 10.6744L14.2407 12.5235C14.6133 12.7098 15.0665 12.5588 15.2529 12.1861C15.4392 11.8134 15.2881 11.3602 14.9155 11.1739L11.6343 9.5333V4.45223Z"
    fill="currentColor" />
</svg>
  