<svg width="12" height="12" viewBox="0 0 12 12" fill="none" xmlns="http://www.w3.org/2000/svg">
  <path fill-rule="evenodd" clip-rule="evenodd"
    d="M11.7071 1.70711C12.0977 1.31658 12.0977 0.683418 11.7071 0.292893C11.3166 -0.0976311 10.6834 -0.0976311 10.2929 0.292893L6.00001 4.5858L1.70711 0.292897C1.31658 -0.0976277 0.683417 -0.0976276 0.292893 0.292897C-0.0976311 0.683421 -0.0976311 1.31659 0.292893 1.70711L4.58579 6L0.292894 10.2929C-0.0976307 10.6834 -0.0976306 11.3166 0.292894 11.7071C0.683418 12.0976 1.31658 12.0976 1.70711 11.7071L6.00002 7.4142L10.2929 11.7071C10.6834 12.0976 11.3166 12.0976 11.7071 11.7071C12.0977 11.3166 12.0977 10.6834 11.7071 10.2929L7.41424 6L11.7071 1.70711Z"
    fill="currentColor" />
</svg>
  