<svg width="24" height="24" viewBox="0 0 24 24" fill="none" xmlns="http://www.w3.org/2000/svg">
  <path fill-rule="evenodd" clip-rule="evenodd"
    d="M2 2H4V4H2L2 2ZM0 2C0 0.89543 0.895431 0 2 0H4C5.10457 0 6 0.895431 6 2V4C6 5.10457 5.10457 6 4 6H2C0.89543 6 0 5.10457 0 4V2ZM10 2C9.44772 2 9 2.44772 9 3C9 3.55228 9.44771 4 10 4H23C23.5523 4 24 3.55228 24 3C24 2.44772 23.5523 2 23 2H10ZM4 11H2L2 13H4V11ZM2 9C0.895431 9 0 9.89543 0 11V13C0 14.1046 0.89543 15 2 15H4C5.10457 15 6 14.1046 6 13V11C6 9.89543 5.10457 9 4 9H2ZM10 11C9.44772 11 9 11.4477 9 12C9 12.5523 9.44771 13 10 13H23C23.5523 13 24 12.5523 24 12C24 11.4477 23.5523 11 23 11H10ZM4 20H2L2 22H4V20ZM2 18C0.895431 18 0 18.8954 0 20V22C0 23.1046 0.89543 24 2 24H4C5.10457 24 6 23.1046 6 22V20C6 18.8954 5.10457 18 4 18H2ZM10 20C9.44772 20 9 20.4477 9 21C9 21.5523 9.44771 22 10 22H23C23.5523 22 24 21.5523 24 21C24 20.4477 23.5523 20 23 20H10Z"
    fill="currentColor" />
</svg>