<svg width="24" height="24" viewBox="0 0 19 25" fill="none" xmlns="http://www.w3.org/2000/svg">
  <path fill-rule="evenodd" clip-rule="evenodd"
    d="M2.17549 0C0.937503 0 0 0.937503 0 2.17549V21.767C0 23.005 1.03546 24.0404 2.27345 24.0404H16.0855C17.3234 24.0404 18.3589 23.005 18.3589 21.767V5.89788C18.3589 5.49863 18.2434 4.73427 17.6187 4.25364L14.0498 0.684723C13.8203 0.455279 13.5584 0.271538 13.2486 0.152367C12.9432 0.0349033 12.6425 0 12.3631 0H2.17549ZM2 2.17549C2 2.07724 2.03118 2.04424 2.03771 2.03771C2.04424 2.03118 2.07724 2 2.17549 2H12.3631C12.4755 2 12.5177 2.01408 12.5306 2.01906L12.5307 2.01909C12.5393 2.02241 12.5713 2.03471 12.6355 2.09894L16.26 5.72336C16.2799 5.74331 16.3007 5.76239 16.3222 5.78056C16.3378 5.7937 16.3497 5.81102 16.3531 5.83111C16.3572 5.85513 16.3589 5.87867 16.3589 5.89788V21.767C16.3589 21.8205 16.3351 21.8909 16.2722 21.9537C16.2093 22.0166 16.139 22.0404 16.0855 22.0404H2.27345C2.21992 22.0404 2.14957 22.0166 2.08669 21.9537C2.02381 21.8909 2 21.8205 2 21.767V2.17549ZM4.32972 16.8476C3.77743 16.8476 3.32972 17.2953 3.32972 17.8476C3.32972 18.3999 3.77743 18.8476 4.32972 18.8476H13.9296C14.4818 18.8476 14.9296 18.3999 14.9296 17.8476C14.9296 17.2953 14.4818 16.8476 13.9296 16.8476H4.32972ZM3.32972 14.2232C3.32972 13.6709 3.77743 13.2232 4.32972 13.2232H13.9296C14.4818 13.2232 14.9296 13.6709 14.9296 14.2232C14.9296 14.7755 14.4818 15.2232 13.9296 15.2232H4.32972C3.77743 15.2232 3.32972 14.7755 3.32972 14.2232ZM4.32972 9.6026C3.77743 9.6026 3.32972 10.0503 3.32972 10.6026C3.32972 11.1549 3.77743 11.6026 4.32972 11.6026H13.9296C14.4818 11.6026 14.9296 11.1549 14.9296 10.6026C14.9296 10.0503 14.4818 9.6026 13.9296 9.6026H4.32972Z"
    fill="currentColor" />
</svg>