<svg width="18" height="18" viewBox="0 0 18 18" fill="none" xmlns="http://www.w3.org/2000/svg">
  <path fill-rule="evenodd" clip-rule="evenodd"
    d="M17.5758 0.182411C17.8418 0.369721 18 0.674699 18 1.00001V15.2663C18 15.5752 17.8573 15.8667 17.6133 16.0561C17.3694 16.2456 17.0516 16.3116 16.7524 16.2352L3.46332 12.8384C3.02065 12.7253 2.71096 12.3265 2.71096 11.8696V5.75544C2.71096 5.33306 2.97635 4.95622 3.37404 4.81391L16.6631 0.0584745C16.9694 -0.0511294 17.3098 -0.00489882 17.5758 0.182411ZM4.71096 6.45969V11.093L16 13.9786V2.41995L4.71096 6.45969ZM1 5.43479C1.55228 5.43479 2 5.8825 2 6.43479V11.1902C2 11.7425 1.55228 12.1902 1 12.1902C0.447715 12.1902 0 11.7425 0 11.1902V6.43479C0 5.8825 0.447715 5.43479 1 5.43479ZM4.73547 15.3937C4.87224 14.8586 5.41688 14.5357 5.95196 14.6725L11.2676 16.0312C11.8027 16.1679 12.1256 16.7126 11.9888 17.2476C11.852 17.7827 11.3074 18.1056 10.7723 17.9689L5.45668 16.6102C4.92159 16.4734 4.5987 15.9288 4.73547 15.3937Z"
    fill="currentColor" />
</svg>